A corporate raider threatens a hostile take-over of a "mom and pop" company. The patriarch of the company enlists the help of his wife's daughter...

General 
Complete name : Other.Peoples.Money.1991.DVDRip.x264.AAC-AUS.mp4 
Format : MPEG-4 
Format profile : Base Media / Version 2 
Codec ID : mp42 
File size : 986 MiB 
Duration : 1h 36mn 
Overall bit rate : 1 424 Kbps 

Video 
ID : 1 
Format : AVC 
Format/Info : Advanced Video Codec 
Format profile : High@L3.0 
Format settings, CABAC : Yes 
Format settings, ReFrames : 4 frames 
Codec ID : avc1 
Codec ID/Info : Advanced Video Coding 
Duration : 1h 36mn 
Bit rate mode : Variable 
Bit rate : 1 100 Kbps 
Width : 720 pixels 
Height : 400 pixels 
Display aspect ratio : 16:9 
Frame rate mode : Variable 
Frame rate : 25.000 fps 
Minimum frame rate : 7.813 fps 
Maximum frame rate : 25.000 fps 
Color space : YUV 
Chroma subsampling : 4:2:0 
Bit depth : 8 bits 
Scan type : Progressive 
Bits/(Pixel*Frame) : 0.153 
Stream size : 762 MiB (77%) 
Writing library : x264 core 112 

Audio 
ID : 2 
Format : AAC 
Format/Info : Advanced Audio Codec 
Format profile : LC 
Codec ID : 40 
Duration : 1h 36mn 
Bit rate mode : Variable 
Bit rate : 320 Kbps 
Maximum bit rate : 401 Kbps 
Channel(s) : 2 channels 
Channel positions : Front: L R 
Sampling rate : 48.0 KHz 
Compression mode : Lossy 
Stream size : 221 MiB (22%) 
Language : English 
